<svg width="750" height="219" viewBox="0 0 750 219" fill="none" xmlns="http://www.w3.org/2000/svg">
<g clip-path="url(#clip0_1_3)">
<path d="M131.596 0.000147143C59.8616 -0.989299 0.989524 47.4935 7.81984e-05 107.85C-0.989368 168.206 56.8932 217.678 128.628 218.668C200.363 219.657 259.235 171.174 260.224 110.818C261.214 50.4619 203.331 0.989593 131.596 0.000147143ZM131.102 129.123C108.839 129.123 91.0291 102.903 91.0291 70.2508C91.0291 37.5991 109.334 11.3788 131.596 11.3788C153.859 11.3788 171.669 37.5991 171.669 70.2508C171.669 102.903 153.364 129.123 131.102 129.123Z" fill="#E60012"/>
<path d="M307.223 53.43V181.069C307.223 186.016 309.697 190.468 313.654 193.437C317.117 195.91 321.075 197.394 325.033 197.394C328.991 197.394 332.948 195.91 336.412 193.437C340.864 190.468 342.843 186.016 342.843 181.069V98.4498C350.759 110.818 398.252 184.037 398.252 184.037C400.726 187.995 403.694 190.963 407.652 192.942C411.609 195.416 416.062 196.9 420.514 196.9C425.462 196.9 430.409 195.416 434.861 192.447C440.303 188.984 442.777 183.542 442.777 177.605V49.967C442.777 45.0198 440.303 40.5673 436.346 37.5989C432.883 35.1253 428.925 33.6411 424.967 33.6411C420.514 33.6411 416.557 35.1253 413.094 37.5989C409.631 40.5673 407.652 45.0198 407.652 49.4723V135.059C399.736 123.186 349.769 45.0198 349.769 45.0198C342.843 34.6306 334.433 32.6517 328.496 32.6517C315.138 32.6517 307.223 40.5673 307.223 53.43Z" fill="currentColor"/>
<path d="M638.687 43.0409C625.33 52.4406 618.404 65.3034 618.404 82.124C618.404 94.9868 623.846 112.797 649.076 122.197H649.571L695.086 133.08C712.401 138.028 712.401 144.954 712.401 147.427C712.401 153.859 710.422 157.817 705.475 160.29C700.528 162.764 693.602 163.753 683.707 163.753C672.328 163.753 663.423 161.774 658.476 157.322C657.487 156.332 654.518 153.364 650.066 143.964C644.624 132.586 637.203 130.112 631.761 130.112C626.814 130.112 622.361 132.091 618.898 135.554C615.435 139.017 613.951 143.47 613.951 147.922V148.417L614.446 150.89V151.385C617.909 166.722 626.319 179.09 640.171 187.5C652.045 194.921 666.392 198.384 683.212 198.384C700.033 198.384 714.875 194.426 727.243 187.005C742.579 177.606 750.495 163.753 750.495 146.438C750.495 126.649 740.106 112.302 720.317 103.892H719.822L673.813 92.5132C662.434 89.5449 656.497 85.5871 656.497 80.1451C656.497 72.7243 659.466 69.7559 661.939 68.2718C665.402 66.2929 671.834 65.3034 679.749 65.3034C692.117 65.3034 700.033 68.2718 703.496 74.7032C710.917 87.566 717.348 93.5026 725.264 93.5026H725.759L728.727 93.0079H729.222C737.137 91.029 742.084 84.5976 742.084 75.6926C742.084 73.219 741.59 71.2401 741.095 69.2612C738.127 57.8826 731.2 48.4828 720.811 41.5567C709.927 34.1359 696.57 30.6728 680.739 30.6728C664.908 30.6728 650.066 35.6201 638.687 43.0409Z" fill="currentColor"/>
<path d="M525.89 34.1359H482.355C477.902 34.6306 473.945 36.6095 471.471 40.5673C469.987 42.0514 469.492 43.5356 468.503 45.5145C467.513 47.4934 467.513 50.4617 467.513 50.4617V180.574C467.513 185.026 469.987 189.479 473.945 192.447C477.408 194.921 480.871 196.405 484.828 196.405H525.89C552.605 196.405 572.889 188.984 586.247 174.142C598.615 160.29 605.046 139.017 605.046 111.807C605.046 86.0818 598.12 66.2929 584.268 53.4301C570.91 41.062 551.121 34.1359 525.89 34.1359ZM557.553 149.901C550.627 158.311 540.732 162.269 527.869 162.269H504.617V68.7665H527.869C542.216 68.7665 552.111 72.7243 558.542 80.1451C564.479 87.566 567.447 98.9446 567.447 114.281C567.447 129.617 564.479 141.985 557.553 149.901Z" fill="currentColor"/>
</g>
<defs>
<clipPath id="clip0_1_3">
<rect width="750" height="218.668" fill="white"/>
</clipPath>
</defs>
</svg>
