<?xml version="1.0" encoding="utf-8"?>
<!-- Generator: Adobe Illustrator 27.7.0, SVG Export Plug-In . SVG Version: 6.00 Build 0)  -->
<svg version="1.1" id="_레이어_2" xmlns="http://www.w3.org/2000/svg" xmlns:xlink="http://www.w3.org/1999/xlink" x="0px"
	 y="0px" viewBox="0 0 151.6 44.2" style="enable-background:new 0 0 151.6 44.2;" xml:space="preserve">
<style type="text/css">
	.st0{fill:#E60012;}
	.st1{fill:#151515;}
</style>
<g id="Layer_1">
	<g>
		<path class="st0" d="M26.6,0C12.1-0.2,0.2,9.6,0,21.8C-0.2,34,11.5,44,26,44.2c14.5,0.2,26.4-9.6,26.6-21.8
			C52.8,10.2,41.1,0.2,26.6,0z M26.5,26.1c-4.5,0-8.1-5.3-8.1-11.9s3.7-11.9,8.2-11.9c4.5,0,8.1,5.3,8.1,11.9S31,26.1,26.5,26.1z"/>
		<g>
			<path class="st1" d="M62.1,10.8v25.8c0,1,0.5,1.9,1.3,2.5c0.7,0.5,1.5,0.8,2.3,0.8c0.8,0,1.6-0.3,2.3-0.8
				c0.9-0.6,1.3-1.5,1.3-2.5V19.9c1.6,2.5,11.2,17.3,11.2,17.3c0.5,0.8,1.1,1.4,1.9,1.8c0.8,0.5,1.7,0.8,2.6,0.8c1,0,2-0.3,2.9-0.9
				c1.1-0.7,1.6-1.8,1.6-3V10.1c0-1-0.5-1.9-1.3-2.5c-0.7-0.5-1.5-0.8-2.3-0.8c-0.9,0-1.7,0.3-2.4,0.8c-0.7,0.6-1.1,1.5-1.1,2.4
				v17.3C80.8,24.9,70.7,9.1,70.7,9.1c-1.4-2.1-3.1-2.5-4.3-2.5C63.7,6.6,62.1,8.2,62.1,10.8L62.1,10.8z"/>
			<path class="st1" d="M129.1,8.7c-2.7,1.9-4.1,4.5-4.1,7.9c0,2.6,1.1,6.2,6.2,8.1l0.1,0l9.2,2.2c3.5,1,3.5,2.4,3.5,2.9
				c0,1.3-0.4,2.1-1.4,2.6c-1,0.5-2.4,0.7-4.4,0.7c-2.3,0-4.1-0.4-5.1-1.3c-0.2-0.2-0.8-0.8-1.7-2.7c-1.1-2.3-2.6-2.8-3.7-2.8
				c-1,0-1.9,0.4-2.6,1.1c-0.7,0.7-1,1.6-1,2.5v0.1l0.1,0.5v0.1c0.7,3.1,2.4,5.6,5.2,7.3c2.4,1.5,5.3,2.2,8.7,2.2s6.4-0.8,8.9-2.3
				c3.1-1.9,4.7-4.7,4.7-8.2c0-4-2.1-6.9-6.1-8.6l-0.1,0l-9.3-2.3c-2.3-0.6-3.5-1.4-3.5-2.5c0-1.5,0.6-2.1,1.1-2.4
				c0.7-0.4,2-0.6,3.6-0.6c2.5,0,4.1,0.6,4.8,1.9c1.5,2.6,2.8,3.8,4.4,3.8h0.1l0.6-0.1l0.1,0c1.6-0.4,2.6-1.7,2.6-3.5
				c0-0.5-0.1-0.9-0.2-1.3c-0.6-2.3-2-4.2-4.1-5.6c-2.2-1.5-4.9-2.2-8.1-2.2S131.4,7.2,129.1,8.7L129.1,8.7z"/>
			<path class="st1" d="M106.3,6.9h-8.8c-0.9,0.1-1.7,0.5-2.2,1.3c-0.3,0.3-0.4,0.6-0.6,1c-0.2,0.4-0.2,1-0.2,1v26.3h0
				c0,0.9,0.5,1.8,1.3,2.4c0.7,0.5,1.4,0.8,2.2,0.8v0h8.3c5.4,0,9.5-1.5,12.2-4.5c2.5-2.8,3.8-7.1,3.8-12.6c0-5.2-1.4-9.2-4.2-11.8
				C115.4,8.3,111.4,6.9,106.3,6.9L106.3,6.9z M112.7,30.3L112.7,30.3c-1.4,1.7-3.4,2.5-6,2.5H102V13.9h4.7c2.9,0,4.9,0.8,6.2,2.3
				c1.2,1.5,1.8,3.8,1.8,6.9S114.1,28.7,112.7,30.3L112.7,30.3z"/>
		</g>
	</g>
</g>
</svg>
